<svg id="visual" viewBox="0 0 900 300" width="900" height="300" xmlns="http://www.w3.org/2000/svg" xmlns:xlink="http://www.w3.org/1999/xlink" version="1.1"><rect x="0" y="0" width="900" height="300" fill="#2d1c63"></rect><path d="M0 94L15 93.3C30 92.7 60 91.3 90 89.8C120 88.3 150 86.7 180 90C210 93.3 240 101.7 270 101.7C300 101.7 330 93.3 360 91.7C390 90 420 95 450 101.3C480 107.7 510 115.3 540 111C570 106.7 600 90.3 630 85.2C660 80 690 86 720 91.3C750 96.7 780 101.3 810 102.8C840 104.3 870 102.7 885 101.8L900 101L900 0L885 0C870 0 840 0 810 0C780 0 750 0 720 0C690 0 660 0 630 0C600 0 570 0 540 0C510 0 480 0 450 0C420 0 390 0 360 0C330 0 300 0 270 0C240 0 210 0 180 0C150 0 120 0 90 0C60 0 30 0 15 0L0 0Z" fill="#ffffff"></path><path d="M0 98L15 91.7C30 85.3 60 72.7 90 66.5C120 60.3 150 60.7 180 60.5C210 60.3 240 59.7 270 62.3C300 65 330 71 360 77.2C390 83.3 420 89.7 450 86.7C480 83.7 510 71.3 540 68.3C570 65.3 600 71.7 630 76C660 80.3 690 82.7 720 83.7C750 84.7 780 84.3 810 80.7C840 77 870 70 885 66.5L900 63L900 0L885 0C870 0 840 0 810 0C780 0 750 0 720 0C690 0 660 0 630 0C600 0 570 0 540 0C510 0 480 0 450 0C420 0 390 0 360 0C330 0 300 0 270 0C240 0 210 0 180 0C150 0 120 0 90 0C60 0 30 0 15 0L0 0Z" fill="#faf4fc"></path><path d="M0 72L15 70.8C30 69.7 60 67.3 90 65.2C120 63 150 61 180 59.5C210 58 240 57 270 58.5C300 60 330 64 360 68C390 72 420 76 450 77.8C480 79.7 510 79.3 540 74.7C570 70 600 61 630 56.5C660 52 690 52 720 51.7C750 51.3 780 50.7 810 55.3C840 60 870 70 885 75L900 80L900 0L885 0C870 0 840 0 810 0C780 0 750 0 720 0C690 0 660 0 630 0C600 0 570 0 540 0C510 0 480 0 450 0C420 0 390 0 360 0C330 0 300 0 270 0C240 0 210 0 180 0C150 0 120 0 90 0C60 0 30 0 15 0L0 0Z" fill="#f5e9f9"></path><path d="M0 34L15 36.2C30 38.3 60 42.7 90 42.5C120 42.3 150 37.7 180 35.8C210 34 240 35 270 38C300 41 330 46 360 45.7C390 45.3 420 39.7 450 39.7C480 39.7 510 45.3 540 44.8C570 44.3 600 37.7 630 34.7C660 31.7 690 32.3 720 34C750 35.7 780 38.3 810 40C840 41.7 870 42.3 885 42.7L900 43L900 0L885 0C870 0 840 0 810 0C780 0 750 0 720 0C690 0 660 0 630 0C600 0 570 0 540 0C510 0 480 0 450 0C420 0 390 0 360 0C330 0 300 0 270 0C240 0 210 0 180 0C150 0 120 0 90 0C60 0 30 0 15 0L0 0Z" fill="#f0def6"></path><path d="M0 26L15 26.7C30 27.3 60 28.7 90 29.8C120 31 150 32 180 31C210 30 240 27 270 25.2C300 23.3 330 22.7 360 21.5C390 20.3 420 18.7 450 20C480 21.3 510 25.7 540 28.5C570 31.3 600 32.7 630 33.2C660 33.7 690 33.3 720 29.8C750 26.3 780 19.7 810 18C840 16.3 870 19.7 885 21.3L900 23L900 0L885 0C870 0 840 0 810 0C780 0 750 0 720 0C690 0 660 0 630 0C600 0 570 0 540 0C510 0 480 0 450 0C420 0 390 0 360 0C330 0 300 0 270 0C240 0 210 0 180 0C150 0 120 0 90 0C60 0 30 0 15 0L0 0Z" fill="#ead3f3"></path></svg>