<svg id="visual" viewBox="0 0 900 300" width="900" height="300" xmlns="http://www.w3.org/2000/svg" xmlns:xlink="http://www.w3.org/1999/xlink" version="1.1"><rect x="0" y="0" width="900" height="300" fill="#FFF"></rect><path d="M0 204L25 201.8C50 199.7 100 195.3 150 188.5C200 181.7 250 172.3 300 174.3C350 176.3 400 189.7 450 198.8C500 208 550 213 600 214C650 215 700 212 750 204.3C800 196.7 850 184.3 875 178.2L900 172L900 301L875 301C850 301 800 301 750 301C700 301 650 301 600 301C550 301 500 301 450 301C400 301 350 301 300 301C250 301 200 301 150 301C100 301 50 301 25 301L0 301Z" fill="#ead3f3" stroke-linecap="round" stroke-linejoin="miter"></path></svg>